<?xml version="1.0" standalone="no"?><!DOCTYPE svg PUBLIC "-//W3C//DTD SVG 1.1//EN" "http://www.w3.org/Graphics/SVG/1.1/DTD/svg11.dtd"><svg t="1586514072545" class="icon" viewBox="0 0 1024 1024" version="1.1" xmlns="http://www.w3.org/2000/svg" p-id="3916" xmlns:xlink="http://www.w3.org/1999/xlink" width="200" height="200"><defs><style type="text/css"></style></defs><path d="M362.267 821.616c-34.912 0-63.161 27.717-63.161 61.973 0 34.254 28.249 61.971 63.161 61.971s63.162-27.717 63.162-61.971C425.429 849.333 397.056 821.616 362.267 821.616L362.267 821.616 362.267 821.616 362.267 821.616z" p-id="3917"></path><path d="M804.154 821.616c-34.912 0-63.16 27.717-63.16 61.973 0 34.254 28.248 61.971 63.16 61.971s63.163-27.717 63.163-61.971C867.317 849.333 838.942 821.616 804.154 821.616L804.154 821.616 804.154 821.616 804.154 821.616z" p-id="3918"></path><path d="M884.775 790.751 332.988 790.751c-49.003 0-92.03-35.344-98.006-80.369l-57.636-369.772-32.802-172.843c-1.991-15.13-17.132-27.354-31.871-27.354L69.381 140.413c-18.726 0-33.998-13.92-33.998-30.986 0-17.065 15.272-30.986 33.998-30.986l43.293 0c49.533 0 93.091 35.345 99.068 80.37l32.669 172.116 57.901 371.347c1.858 14.404 16.201 26.508 30.544 26.508l551.919 0c18.857 0 33.997 13.799 33.997 30.986C918.772 776.831 903.633 790.751 884.775 790.751L884.775 790.751 884.775 790.751z" p-id="3919"></path><path d="M293.085 671.69c-17.664 0-97.7-500.414-78.976-500.414l681.423 0c26.027 0 49.8 9.805 67.195 27.718 19.922 20.456 28.951 49.142 24.967 79.038l-53.518 279.115c-5.843 43.453-48.736 78.674-97.741 78.674l-458.428 30.744c-0.929 0.242-1.858 0.242-2.655 0.242l0 0L293.085 671.69z" p-id="3920"></path></svg>