<?xml version="1.0" standalone="no"?><!DOCTYPE svg PUBLIC "-//W3C//DTD SVG 1.1//EN" "http://www.w3.org/Graphics/SVG/1.1/DTD/svg11.dtd"><svg t="1586514067383" class="icon" viewBox="0 0 1024 1024" version="1.1" xmlns="http://www.w3.org/2000/svg" p-id="3793" xmlns:xlink="http://www.w3.org/1999/xlink" width="200" height="200"><defs><style type="text/css"></style></defs><path d="M348.590377 858.63142a67.569159 67.569159 0 0 0-67.56916 67.83629 67.584 67.584 0 1 0 135.138319 0 67.569159 67.569159 0 0 0-67.569159-67.83629z m473.162203 0a67.569159 67.569159 0 0 0-67.56916 67.83629 67.584 67.584 0 1 0 135.15316 0 67.687884 67.687884 0 0 0-67.584-67.83629z m143.864579-682.073043a87.633623 87.633623 0 0 0-66.856811-30.274783H221.807304l-2.359652-13.875942C213.452058 83.003362 170.221449 44.521739 120.995246 44.521739H78.298899A33.792 33.792 0 0 0 44.521739 78.432464a33.777159 33.777159 0 0 0 33.77716 33.925565H120.802319c14.707014 0 29.785043 13.490087 31.595594 29.918609l32.693797 189.306434 57.403362 405.043942c5.995594 49.41913 48.677101 88.093681 97.547131 88.093682h549.279536a33.777159 33.777159 0 0 0 33.77716-33.910725 33.777159 33.777159 0 0 0-33.77716-33.925565H339.864116c-14.350841 0-28.523594-13.312-30.527073-29.19142l-5.624579-39.564986 536.026898-33.183536c48.677101 0 91.551536-38.65971 97.176116-86.26829l53.589334-305.65658c3.814029-32.664116-5.090319-64.215188-24.887653-86.461217z" fill="#DD2727" p-id="3794"></path></svg>